<mxfile host="app.diagrams.net" modified="2023-05-04T08:39:13.852Z" agent="Mozilla/5.0 (Windows NT 10.0; Win64; x64) AppleWebKit/537.36 (KHTML, like Gecko) Chrome/112.0.0.0 Safari/537.36" etag="yHPKFEkbO3zUke2CvnTl" version="21.2.7" type="device">
  <diagram name="Page-1" id="DQg9S_WxvZjkH4IybJpQ">
    <mxGraphModel dx="3217" dy="2429" grid="1" gridSize="10" guides="1" tooltips="1" connect="1" arrows="1" fold="1" page="1" pageScale="1" pageWidth="827" pageHeight="1169" math="0" shadow="0">
      <root>
        <mxCell id="0" />
        <mxCell id="1" parent="0" />
        <mxCell id="6UN-5yC824onA_a0hbCS-1" value="" style="rounded=0;whiteSpace=wrap;html=1;" vertex="1" parent="1">
          <mxGeometry x="20" y="-270" width="1080" height="1470" as="geometry" />
        </mxCell>
        <mxCell id="6UN-5yC824onA_a0hbCS-2" value="Sistem za organizacijo projektov" style="text;html=1;strokeColor=none;fillColor=none;align=center;verticalAlign=middle;whiteSpace=wrap;rounded=0;" vertex="1" parent="1">
          <mxGeometry x="460" y="-250" width="250" height="30" as="geometry" />
        </mxCell>
        <mxCell id="6UN-5yC824onA_a0hbCS-74" style="rounded=0;orthogonalLoop=1;jettySize=auto;html=1;" edge="1" parent="1" target="6UN-5yC824onA_a0hbCS-46">
          <mxGeometry relative="1" as="geometry">
            <mxPoint x="-60" y="750" as="sourcePoint" />
          </mxGeometry>
        </mxCell>
        <mxCell id="6UN-5yC824onA_a0hbCS-75" style="rounded=0;orthogonalLoop=1;jettySize=auto;html=1;" edge="1" parent="1" source="6UN-5yC824onA_a0hbCS-3" target="6UN-5yC824onA_a0hbCS-24">
          <mxGeometry relative="1" as="geometry" />
        </mxCell>
        <mxCell id="6UN-5yC824onA_a0hbCS-78" style="rounded=0;orthogonalLoop=1;jettySize=auto;html=1;entryX=0;entryY=0.5;entryDx=0;entryDy=0;" edge="1" parent="1" source="6UN-5yC824onA_a0hbCS-3" target="6UN-5yC824onA_a0hbCS-18">
          <mxGeometry relative="1" as="geometry" />
        </mxCell>
        <mxCell id="6UN-5yC824onA_a0hbCS-79" style="rounded=0;orthogonalLoop=1;jettySize=auto;html=1;entryX=0.018;entryY=0.606;entryDx=0;entryDy=0;entryPerimeter=0;" edge="1" parent="1" source="6UN-5yC824onA_a0hbCS-3" target="6UN-5yC824onA_a0hbCS-28">
          <mxGeometry relative="1" as="geometry" />
        </mxCell>
        <mxCell id="6UN-5yC824onA_a0hbCS-80" style="rounded=0;orthogonalLoop=1;jettySize=auto;html=1;" edge="1" parent="1" target="6UN-5yC824onA_a0hbCS-35">
          <mxGeometry relative="1" as="geometry">
            <mxPoint x="-60" y="750" as="sourcePoint" />
          </mxGeometry>
        </mxCell>
        <mxCell id="6UN-5yC824onA_a0hbCS-81" style="rounded=0;orthogonalLoop=1;jettySize=auto;html=1;entryX=0;entryY=0.5;entryDx=0;entryDy=0;" edge="1" parent="1" source="6UN-5yC824onA_a0hbCS-3" target="6UN-5yC824onA_a0hbCS-26">
          <mxGeometry relative="1" as="geometry" />
        </mxCell>
        <mxCell id="6UN-5yC824onA_a0hbCS-84" style="rounded=0;orthogonalLoop=1;jettySize=auto;html=1;entryX=-0.001;entryY=0.56;entryDx=0;entryDy=0;entryPerimeter=0;" edge="1" parent="1" source="6UN-5yC824onA_a0hbCS-3" target="6UN-5yC824onA_a0hbCS-82">
          <mxGeometry relative="1" as="geometry" />
        </mxCell>
        <mxCell id="6UN-5yC824onA_a0hbCS-3" value="Član brez projekta" style="shape=umlActor;verticalLabelPosition=bottom;verticalAlign=top;html=1;outlineConnect=0;" vertex="1" parent="1">
          <mxGeometry x="-100" y="710" width="30" height="60" as="geometry" />
        </mxCell>
        <mxCell id="6UN-5yC824onA_a0hbCS-63" style="rounded=0;orthogonalLoop=1;jettySize=auto;html=1;" edge="1" parent="1" source="6UN-5yC824onA_a0hbCS-4" target="6UN-5yC824onA_a0hbCS-56">
          <mxGeometry relative="1" as="geometry" />
        </mxCell>
        <mxCell id="6UN-5yC824onA_a0hbCS-64" style="edgeStyle=orthogonalEdgeStyle;rounded=0;orthogonalLoop=1;jettySize=auto;html=1;" edge="1" parent="1" source="6UN-5yC824onA_a0hbCS-4" target="6UN-5yC824onA_a0hbCS-58">
          <mxGeometry relative="1" as="geometry" />
        </mxCell>
        <mxCell id="6UN-5yC824onA_a0hbCS-65" style="rounded=0;orthogonalLoop=1;jettySize=auto;html=1;" edge="1" parent="1" source="6UN-5yC824onA_a0hbCS-4" target="6UN-5yC824onA_a0hbCS-60">
          <mxGeometry relative="1" as="geometry" />
        </mxCell>
        <mxCell id="6UN-5yC824onA_a0hbCS-4" value="Admin" style="shape=umlActor;verticalLabelPosition=bottom;verticalAlign=top;html=1;outlineConnect=0;" vertex="1" parent="1">
          <mxGeometry x="1160" y="480" width="30" height="60" as="geometry" />
        </mxCell>
        <mxCell id="6UN-5yC824onA_a0hbCS-6" value="" style="ellipse;whiteSpace=wrap;html=1;" vertex="1" parent="1">
          <mxGeometry x="360" y="210" width="120" height="80" as="geometry" />
        </mxCell>
        <mxCell id="6UN-5yC824onA_a0hbCS-7" value="Upravljanje opravil" style="text;html=1;strokeColor=none;fillColor=none;align=center;verticalAlign=middle;whiteSpace=wrap;rounded=0;" vertex="1" parent="1">
          <mxGeometry x="390" y="240" width="60" height="30" as="geometry" />
        </mxCell>
        <mxCell id="6UN-5yC824onA_a0hbCS-8" value="" style="ellipse;whiteSpace=wrap;html=1;" vertex="1" parent="1">
          <mxGeometry x="505" y="305" width="120" height="80" as="geometry" />
        </mxCell>
        <mxCell id="6UN-5yC824onA_a0hbCS-9" value="Urejanje Kanban table" style="text;html=1;strokeColor=none;fillColor=none;align=center;verticalAlign=middle;whiteSpace=wrap;rounded=0;" vertex="1" parent="1">
          <mxGeometry x="535" y="335" width="60" height="30" as="geometry" />
        </mxCell>
        <mxCell id="6UN-5yC824onA_a0hbCS-10" value="" style="ellipse;whiteSpace=wrap;html=1;" vertex="1" parent="1">
          <mxGeometry x="80" y="540" width="120" height="80" as="geometry" />
        </mxCell>
        <mxCell id="6UN-5yC824onA_a0hbCS-11" value="Premikanje opravil po tabli" style="text;html=1;strokeColor=none;fillColor=none;align=center;verticalAlign=middle;whiteSpace=wrap;rounded=0;" vertex="1" parent="1">
          <mxGeometry x="110" y="570" width="60" height="30" as="geometry" />
        </mxCell>
        <mxCell id="6UN-5yC824onA_a0hbCS-14" value="" style="ellipse;whiteSpace=wrap;html=1;" vertex="1" parent="1">
          <mxGeometry x="160" y="135" width="120" height="80" as="geometry" />
        </mxCell>
        <mxCell id="6UN-5yC824onA_a0hbCS-15" value="Ustvarjanje opravil" style="text;html=1;strokeColor=none;fillColor=none;align=center;verticalAlign=middle;whiteSpace=wrap;rounded=0;" vertex="1" parent="1">
          <mxGeometry x="190" y="165" width="60" height="30" as="geometry" />
        </mxCell>
        <mxCell id="6UN-5yC824onA_a0hbCS-16" value="" style="ellipse;whiteSpace=wrap;html=1;" vertex="1" parent="1">
          <mxGeometry x="180" y="300" width="120" height="80" as="geometry" />
        </mxCell>
        <mxCell id="6UN-5yC824onA_a0hbCS-17" value="Dodeljevanje opravil" style="text;html=1;strokeColor=none;fillColor=none;align=center;verticalAlign=middle;whiteSpace=wrap;rounded=0;" vertex="1" parent="1">
          <mxGeometry x="210" y="330" width="60" height="30" as="geometry" />
        </mxCell>
        <mxCell id="6UN-5yC824onA_a0hbCS-18" value="" style="ellipse;whiteSpace=wrap;html=1;" vertex="1" parent="1">
          <mxGeometry x="415" y="760.55" width="120" height="80" as="geometry" />
        </mxCell>
        <mxCell id="6UN-5yC824onA_a0hbCS-19" value="Objava problema" style="text;html=1;strokeColor=none;fillColor=none;align=center;verticalAlign=middle;whiteSpace=wrap;rounded=0;" vertex="1" parent="1">
          <mxGeometry x="445" y="790.55" width="60" height="30" as="geometry" />
        </mxCell>
        <mxCell id="6UN-5yC824onA_a0hbCS-20" value="" style="ellipse;whiteSpace=wrap;html=1;" vertex="1" parent="1">
          <mxGeometry x="360" y="370" width="120" height="80" as="geometry" />
        </mxCell>
        <mxCell id="6UN-5yC824onA_a0hbCS-21" value="Pošiljanje obvestila" style="text;html=1;strokeColor=none;fillColor=none;align=center;verticalAlign=middle;whiteSpace=wrap;rounded=0;" vertex="1" parent="1">
          <mxGeometry x="390" y="400" width="60" height="30" as="geometry" />
        </mxCell>
        <mxCell id="6UN-5yC824onA_a0hbCS-22" value="" style="endArrow=classic;html=1;rounded=0;entryX=0.075;entryY=0.288;entryDx=0;entryDy=0;entryPerimeter=0;dashed=1;" edge="1" parent="1" source="6UN-5yC824onA_a0hbCS-16" target="6UN-5yC824onA_a0hbCS-20">
          <mxGeometry width="50" height="50" relative="1" as="geometry">
            <mxPoint x="390" y="490" as="sourcePoint" />
            <mxPoint x="440" y="440" as="targetPoint" />
          </mxGeometry>
        </mxCell>
        <mxCell id="6UN-5yC824onA_a0hbCS-23" value="&amp;lt;&amp;lt;include&amp;gt;&amp;gt;" style="edgeLabel;html=1;align=center;verticalAlign=middle;resizable=0;points=[];" vertex="1" connectable="0" parent="6UN-5yC824onA_a0hbCS-22">
          <mxGeometry x="0.3954" y="1" relative="1" as="geometry">
            <mxPoint x="-41" y="7" as="offset" />
          </mxGeometry>
        </mxCell>
        <mxCell id="6UN-5yC824onA_a0hbCS-33" style="rounded=0;orthogonalLoop=1;jettySize=auto;html=1;dashed=1;entryX=0.959;entryY=0.294;entryDx=0;entryDy=0;entryPerimeter=0;" edge="1" parent="1" source="6UN-5yC824onA_a0hbCS-31" target="6UN-5yC824onA_a0hbCS-24">
          <mxGeometry relative="1" as="geometry" />
        </mxCell>
        <mxCell id="6UN-5yC824onA_a0hbCS-34" value="&amp;lt;&amp;lt;extend&amp;gt;&amp;gt;" style="edgeLabel;html=1;align=center;verticalAlign=middle;resizable=0;points=[];" vertex="1" connectable="0" parent="6UN-5yC824onA_a0hbCS-33">
          <mxGeometry x="-0.1817" relative="1" as="geometry">
            <mxPoint x="-2" y="-15" as="offset" />
          </mxGeometry>
        </mxCell>
        <mxCell id="6UN-5yC824onA_a0hbCS-24" value="" style="ellipse;whiteSpace=wrap;html=1;" vertex="1" parent="1">
          <mxGeometry x="520" y="530" width="120" height="80" as="geometry" />
        </mxCell>
        <mxCell id="6UN-5yC824onA_a0hbCS-25" value="Iskanje problema" style="text;html=1;strokeColor=none;fillColor=none;align=center;verticalAlign=middle;whiteSpace=wrap;rounded=0;" vertex="1" parent="1">
          <mxGeometry x="550" y="560" width="60" height="30" as="geometry" />
        </mxCell>
        <mxCell id="6UN-5yC824onA_a0hbCS-26" value="" style="ellipse;whiteSpace=wrap;html=1;" vertex="1" parent="1">
          <mxGeometry x="245" y="1050.55" width="120" height="80" as="geometry" />
        </mxCell>
        <mxCell id="6UN-5yC824onA_a0hbCS-27" value="Objava odgovora" style="text;html=1;strokeColor=none;fillColor=none;align=center;verticalAlign=middle;whiteSpace=wrap;rounded=0;" vertex="1" parent="1">
          <mxGeometry x="275" y="1080.55" width="60" height="20" as="geometry" />
        </mxCell>
        <mxCell id="6UN-5yC824onA_a0hbCS-28" value="" style="ellipse;whiteSpace=wrap;html=1;" vertex="1" parent="1">
          <mxGeometry x="300" y="680" width="120" height="80" as="geometry" />
        </mxCell>
        <mxCell id="6UN-5yC824onA_a0hbCS-29" value="Glasovanje&amp;nbsp; o kvaliteti odgovora" style="text;html=1;strokeColor=none;fillColor=none;align=center;verticalAlign=middle;whiteSpace=wrap;rounded=0;" vertex="1" parent="1">
          <mxGeometry x="330" y="710" width="60" height="30" as="geometry" />
        </mxCell>
        <mxCell id="6UN-5yC824onA_a0hbCS-31" value="" style="ellipse;whiteSpace=wrap;html=1;" vertex="1" parent="1">
          <mxGeometry x="750" y="510" width="120" height="80" as="geometry" />
        </mxCell>
        <mxCell id="6UN-5yC824onA_a0hbCS-32" value="Iskanje s pomočjo umetne inteligence" style="text;html=1;strokeColor=none;fillColor=none;align=center;verticalAlign=middle;whiteSpace=wrap;rounded=0;" vertex="1" parent="1">
          <mxGeometry x="780" y="535" width="60" height="30" as="geometry" />
        </mxCell>
        <mxCell id="6UN-5yC824onA_a0hbCS-35" value="" style="ellipse;whiteSpace=wrap;html=1;" vertex="1" parent="1">
          <mxGeometry x="415" y="1010.55" width="120" height="80" as="geometry" />
        </mxCell>
        <mxCell id="6UN-5yC824onA_a0hbCS-36" value="Objava vprašanja in odgovora" style="text;html=1;strokeColor=none;fillColor=none;align=center;verticalAlign=middle;whiteSpace=wrap;rounded=0;" vertex="1" parent="1">
          <mxGeometry x="445" y="1035.55" width="60" height="30" as="geometry" />
        </mxCell>
        <mxCell id="6UN-5yC824onA_a0hbCS-38" value="" style="ellipse;whiteSpace=wrap;html=1;" vertex="1" parent="1">
          <mxGeometry x="240" y="-170" width="120" height="80" as="geometry" />
        </mxCell>
        <mxCell id="6UN-5yC824onA_a0hbCS-39" value="Ustvarjanje dogodka" style="text;html=1;strokeColor=none;fillColor=none;align=center;verticalAlign=middle;whiteSpace=wrap;rounded=0;" vertex="1" parent="1">
          <mxGeometry x="270" y="-140" width="60" height="30" as="geometry" />
        </mxCell>
        <mxCell id="6UN-5yC824onA_a0hbCS-40" value="" style="ellipse;whiteSpace=wrap;html=1;" vertex="1" parent="1">
          <mxGeometry x="270" y="-70" width="120" height="80" as="geometry" />
        </mxCell>
        <mxCell id="6UN-5yC824onA_a0hbCS-41" value="Brisanje dogodka" style="text;html=1;strokeColor=none;fillColor=none;align=center;verticalAlign=middle;whiteSpace=wrap;rounded=0;" vertex="1" parent="1">
          <mxGeometry x="300" y="-40" width="60" height="30" as="geometry" />
        </mxCell>
        <mxCell id="6UN-5yC824onA_a0hbCS-42" value="" style="ellipse;whiteSpace=wrap;html=1;" vertex="1" parent="1">
          <mxGeometry x="180" y="20" width="120" height="80" as="geometry" />
        </mxCell>
        <mxCell id="6UN-5yC824onA_a0hbCS-43" value="Urejanje dogodka" style="text;html=1;strokeColor=none;fillColor=none;align=center;verticalAlign=middle;whiteSpace=wrap;rounded=0;" vertex="1" parent="1">
          <mxGeometry x="210" y="50" width="60" height="30" as="geometry" />
        </mxCell>
        <mxCell id="6UN-5yC824onA_a0hbCS-44" value="" style="ellipse;whiteSpace=wrap;html=1;" vertex="1" parent="1">
          <mxGeometry x="135" y="420" width="120" height="80" as="geometry" />
        </mxCell>
        <mxCell id="6UN-5yC824onA_a0hbCS-45" value="Pregled opravil za projekt" style="text;html=1;strokeColor=none;fillColor=none;align=center;verticalAlign=middle;whiteSpace=wrap;rounded=0;" vertex="1" parent="1">
          <mxGeometry x="165" y="450" width="60" height="30" as="geometry" />
        </mxCell>
        <mxCell id="6UN-5yC824onA_a0hbCS-46" value="" style="ellipse;whiteSpace=wrap;html=1;" vertex="1" parent="1">
          <mxGeometry x="320" y="882.51" width="120" height="80" as="geometry" />
        </mxCell>
        <mxCell id="6UN-5yC824onA_a0hbCS-47" value="Pregled in spremljanje dogodkov" style="text;html=1;strokeColor=none;fillColor=none;align=center;verticalAlign=middle;whiteSpace=wrap;rounded=0;" vertex="1" parent="1">
          <mxGeometry x="350" y="907.51" width="60" height="30" as="geometry" />
        </mxCell>
        <mxCell id="6UN-5yC824onA_a0hbCS-50" style="rounded=0;orthogonalLoop=1;jettySize=auto;html=1;endArrow=block;endFill=0;" edge="1" parent="1">
          <mxGeometry relative="1" as="geometry">
            <mxPoint x="1176" y="570" as="targetPoint" />
            <mxPoint x="1175" y="751" as="sourcePoint" />
          </mxGeometry>
        </mxCell>
        <mxCell id="6UN-5yC824onA_a0hbCS-53" style="rounded=0;orthogonalLoop=1;jettySize=auto;html=1;entryX=1;entryY=0.375;entryDx=0;entryDy=0;entryPerimeter=0;" edge="1" parent="1" source="6UN-5yC824onA_a0hbCS-48" target="6UN-5yC824onA_a0hbCS-51">
          <mxGeometry relative="1" as="geometry" />
        </mxCell>
        <mxCell id="6UN-5yC824onA_a0hbCS-62" style="rounded=0;orthogonalLoop=1;jettySize=auto;html=1;" edge="1" parent="1" source="6UN-5yC824onA_a0hbCS-48" target="6UN-5yC824onA_a0hbCS-54">
          <mxGeometry relative="1" as="geometry" />
        </mxCell>
        <mxCell id="6UN-5yC824onA_a0hbCS-48" value="Super admin" style="shape=umlActor;verticalLabelPosition=bottom;verticalAlign=top;html=1;outlineConnect=0;" vertex="1" parent="1">
          <mxGeometry x="1160" y="770" width="30" height="60" as="geometry" />
        </mxCell>
        <mxCell id="6UN-5yC824onA_a0hbCS-51" value="" style="ellipse;whiteSpace=wrap;html=1;" vertex="1" parent="1">
          <mxGeometry x="840" y="730" width="120" height="80" as="geometry" />
        </mxCell>
        <mxCell id="6UN-5yC824onA_a0hbCS-52" value="Upravljanje z podjetji" style="text;html=1;strokeColor=none;fillColor=none;align=center;verticalAlign=middle;whiteSpace=wrap;rounded=0;" vertex="1" parent="1">
          <mxGeometry x="870" y="760" width="60" height="30" as="geometry" />
        </mxCell>
        <mxCell id="6UN-5yC824onA_a0hbCS-54" value="" style="ellipse;whiteSpace=wrap;html=1;" vertex="1" parent="1">
          <mxGeometry x="860" y="860" width="120" height="80" as="geometry" />
        </mxCell>
        <mxCell id="6UN-5yC824onA_a0hbCS-55" value="Določanje admina podjetja" style="text;html=1;strokeColor=none;fillColor=none;align=center;verticalAlign=middle;whiteSpace=wrap;rounded=0;" vertex="1" parent="1">
          <mxGeometry x="890" y="890" width="60" height="30" as="geometry" />
        </mxCell>
        <mxCell id="6UN-5yC824onA_a0hbCS-56" value="" style="ellipse;whiteSpace=wrap;html=1;" vertex="1" parent="1">
          <mxGeometry x="900" y="370" width="120" height="80" as="geometry" />
        </mxCell>
        <mxCell id="6UN-5yC824onA_a0hbCS-57" value="Dodajanje zaposlenih" style="text;html=1;strokeColor=none;fillColor=none;align=center;verticalAlign=middle;whiteSpace=wrap;rounded=0;" vertex="1" parent="1">
          <mxGeometry x="930" y="400" width="60" height="30" as="geometry" />
        </mxCell>
        <mxCell id="6UN-5yC824onA_a0hbCS-58" value="" style="ellipse;whiteSpace=wrap;html=1;" vertex="1" parent="1">
          <mxGeometry x="920" y="470" width="120" height="80" as="geometry" />
        </mxCell>
        <mxCell id="6UN-5yC824onA_a0hbCS-59" value="Urejanje zaposlenih" style="text;html=1;strokeColor=none;fillColor=none;align=center;verticalAlign=middle;whiteSpace=wrap;rounded=0;" vertex="1" parent="1">
          <mxGeometry x="950" y="500" width="60" height="30" as="geometry" />
        </mxCell>
        <mxCell id="6UN-5yC824onA_a0hbCS-60" value="" style="ellipse;whiteSpace=wrap;html=1;" vertex="1" parent="1">
          <mxGeometry x="910" y="580" width="120" height="80" as="geometry" />
        </mxCell>
        <mxCell id="6UN-5yC824onA_a0hbCS-61" value="Upravljanje podjetja" style="text;html=1;strokeColor=none;fillColor=none;align=center;verticalAlign=middle;whiteSpace=wrap;rounded=0;" vertex="1" parent="1">
          <mxGeometry x="940" y="610" width="60" height="30" as="geometry" />
        </mxCell>
        <mxCell id="6UN-5yC824onA_a0hbCS-66" value="" style="ellipse;whiteSpace=wrap;html=1;" vertex="1" parent="1">
          <mxGeometry x="300" y="100" width="120" height="80" as="geometry" />
        </mxCell>
        <mxCell id="6UN-5yC824onA_a0hbCS-67" value="Ustvarjanje in upravljanje&amp;nbsp;&lt;br&gt;projektov" style="text;html=1;strokeColor=none;fillColor=none;align=center;verticalAlign=middle;whiteSpace=wrap;rounded=0;" vertex="1" parent="1">
          <mxGeometry x="330" y="125" width="60" height="30" as="geometry" />
        </mxCell>
        <mxCell id="6UN-5yC824onA_a0hbCS-68" value="" style="ellipse;whiteSpace=wrap;html=1;" vertex="1" parent="1">
          <mxGeometry x="580" width="140" height="110" as="geometry" />
        </mxCell>
        <mxCell id="6UN-5yC824onA_a0hbCS-69" value="Dodajanje in upravljanje članov k projektu" style="text;html=1;strokeColor=none;fillColor=none;align=center;verticalAlign=middle;whiteSpace=wrap;rounded=0;" vertex="1" parent="1">
          <mxGeometry x="620" y="45" width="60" height="30" as="geometry" />
        </mxCell>
        <mxCell id="6UN-5yC824onA_a0hbCS-85" style="rounded=0;orthogonalLoop=1;jettySize=auto;html=1;entryX=0.025;entryY=0.313;entryDx=0;entryDy=0;entryPerimeter=0;" edge="1" parent="1" source="6UN-5yC824onA_a0hbCS-70" target="6UN-5yC824onA_a0hbCS-16">
          <mxGeometry relative="1" as="geometry" />
        </mxCell>
        <mxCell id="6UN-5yC824onA_a0hbCS-86" style="rounded=0;orthogonalLoop=1;jettySize=auto;html=1;" edge="1" parent="1" source="6UN-5yC824onA_a0hbCS-70" target="6UN-5yC824onA_a0hbCS-14">
          <mxGeometry relative="1" as="geometry" />
        </mxCell>
        <mxCell id="6UN-5yC824onA_a0hbCS-87" style="rounded=0;orthogonalLoop=1;jettySize=auto;html=1;" edge="1" parent="1" source="6UN-5yC824onA_a0hbCS-70" target="6UN-5yC824onA_a0hbCS-42">
          <mxGeometry relative="1" as="geometry" />
        </mxCell>
        <mxCell id="6UN-5yC824onA_a0hbCS-88" style="rounded=0;orthogonalLoop=1;jettySize=auto;html=1;entryX=0.033;entryY=0.625;entryDx=0;entryDy=0;entryPerimeter=0;" edge="1" parent="1" source="6UN-5yC824onA_a0hbCS-70" target="6UN-5yC824onA_a0hbCS-40">
          <mxGeometry relative="1" as="geometry" />
        </mxCell>
        <mxCell id="6UN-5yC824onA_a0hbCS-89" style="rounded=0;orthogonalLoop=1;jettySize=auto;html=1;" edge="1" parent="1" source="6UN-5yC824onA_a0hbCS-70" target="6UN-5yC824onA_a0hbCS-38">
          <mxGeometry relative="1" as="geometry" />
        </mxCell>
        <mxCell id="6UN-5yC824onA_a0hbCS-90" style="rounded=0;orthogonalLoop=1;jettySize=auto;html=1;entryX=0.042;entryY=0.325;entryDx=0;entryDy=0;entryPerimeter=0;" edge="1" parent="1" source="6UN-5yC824onA_a0hbCS-70" target="6UN-5yC824onA_a0hbCS-66">
          <mxGeometry relative="1" as="geometry" />
        </mxCell>
        <mxCell id="6UN-5yC824onA_a0hbCS-91" style="rounded=0;orthogonalLoop=1;jettySize=auto;html=1;entryX=0;entryY=0.582;entryDx=0;entryDy=0;entryPerimeter=0;" edge="1" parent="1" source="6UN-5yC824onA_a0hbCS-70" target="6UN-5yC824onA_a0hbCS-68">
          <mxGeometry relative="1" as="geometry" />
        </mxCell>
        <mxCell id="6UN-5yC824onA_a0hbCS-92" style="rounded=0;orthogonalLoop=1;jettySize=auto;html=1;endArrow=block;endFill=0;" edge="1" parent="1">
          <mxGeometry relative="1" as="geometry">
            <mxPoint x="-100" y="410" as="targetPoint" />
            <mxPoint x="-105" y="220" as="sourcePoint" />
          </mxGeometry>
        </mxCell>
        <mxCell id="6UN-5yC824onA_a0hbCS-93" style="rounded=0;orthogonalLoop=1;jettySize=auto;html=1;entryX=0.033;entryY=0.713;entryDx=0;entryDy=0;entryPerimeter=0;" edge="1" parent="1" source="6UN-5yC824onA_a0hbCS-70" target="6UN-5yC824onA_a0hbCS-6">
          <mxGeometry relative="1" as="geometry" />
        </mxCell>
        <mxCell id="6UN-5yC824onA_a0hbCS-94" style="rounded=0;orthogonalLoop=1;jettySize=auto;html=1;entryX=0;entryY=0.5;entryDx=0;entryDy=0;" edge="1" parent="1" source="6UN-5yC824onA_a0hbCS-70" target="6UN-5yC824onA_a0hbCS-8">
          <mxGeometry relative="1" as="geometry" />
        </mxCell>
        <mxCell id="6UN-5yC824onA_a0hbCS-70" value="Vodja projekta" style="shape=umlActor;verticalLabelPosition=bottom;verticalAlign=top;html=1;outlineConnect=0;" vertex="1" parent="1">
          <mxGeometry x="-120" y="125" width="30" height="60" as="geometry" />
        </mxCell>
        <mxCell id="6UN-5yC824onA_a0hbCS-77" style="rounded=0;orthogonalLoop=1;jettySize=auto;html=1;endArrow=block;endFill=0;" edge="1" parent="1">
          <mxGeometry relative="1" as="geometry">
            <mxPoint x="-90" y="690" as="targetPoint" />
            <mxPoint x="-95" y="540" as="sourcePoint" />
          </mxGeometry>
        </mxCell>
        <mxCell id="6UN-5yC824onA_a0hbCS-95" style="rounded=0;orthogonalLoop=1;jettySize=auto;html=1;" edge="1" parent="1" source="6UN-5yC824onA_a0hbCS-71" target="6UN-5yC824onA_a0hbCS-44">
          <mxGeometry relative="1" as="geometry" />
        </mxCell>
        <mxCell id="6UN-5yC824onA_a0hbCS-96" style="rounded=0;orthogonalLoop=1;jettySize=auto;html=1;entryX=0.025;entryY=0.363;entryDx=0;entryDy=0;entryPerimeter=0;" edge="1" parent="1" source="6UN-5yC824onA_a0hbCS-71" target="6UN-5yC824onA_a0hbCS-10">
          <mxGeometry relative="1" as="geometry" />
        </mxCell>
        <mxCell id="6UN-5yC824onA_a0hbCS-71" value="Član projekta" style="shape=umlActor;verticalLabelPosition=bottom;verticalAlign=top;html=1;outlineConnect=0;" vertex="1" parent="1">
          <mxGeometry x="-110" y="440" width="30" height="60" as="geometry" />
        </mxCell>
        <mxCell id="6UN-5yC824onA_a0hbCS-82" value="" style="ellipse;whiteSpace=wrap;html=1;" vertex="1" parent="1">
          <mxGeometry x="440" y="610" width="120" height="80" as="geometry" />
        </mxCell>
        <mxCell id="6UN-5yC824onA_a0hbCS-83" value="Pregled projektov podjetja" style="text;html=1;strokeColor=none;fillColor=none;align=center;verticalAlign=middle;whiteSpace=wrap;rounded=0;" vertex="1" parent="1">
          <mxGeometry x="470" y="640" width="60" height="30" as="geometry" />
        </mxCell>
      </root>
    </mxGraphModel>
  </diagram>
</mxfile>
